<svg width="23" height="20" viewBox="0 0 23 20" fill="none" xmlns="http://www.w3.org/2000/svg">
<g id="Combined Shape 2">
<path id="Combined Shape" d="M8.625 15.833C9.75721 15.833 10.6785 16.7674 10.6787 17.916C10.6787 19.0647 9.75732 20 8.625 20C7.49273 19.9999 6.57129 19.0647 6.57129 17.916C6.57146 16.7675 7.49284 15.8331 8.625 15.833ZM18.4824 15.833C19.6145 15.8332 20.536 16.7675 20.5361 17.916C20.5361 19.0647 19.6146 19.9999 18.4824 20C17.3501 20 16.4287 19.0647 16.4287 17.916C16.4289 16.7674 17.3502 15.833 18.4824 15.833ZM8.625 17.2217C8.24778 17.2217 7.9406 17.5334 7.94043 17.916C7.94043 18.2988 8.24767 18.6103 8.625 18.6104C9.00238 18.6104 9.30957 18.2989 9.30957 17.916C9.3094 17.5333 9.00227 17.2217 8.625 17.2217ZM18.4824 17.2217C18.1051 17.2217 17.798 17.5333 17.7979 17.916C17.7979 18.2989 18.105 18.6104 18.4824 18.6104C18.8597 18.6102 19.167 18.2988 19.167 17.916C19.1668 17.5334 18.8596 17.2218 18.4824 17.2217ZM4.7168 0C5.03265 0 5.30639 0.214744 5.375 0.516602L5.85645 2.63867H22.3262C22.5376 2.63867 22.7369 2.7361 22.8643 2.90137C22.9914 3.06658 23.0316 3.28044 22.9736 3.47949L20.2783 12.7158C20.1957 12.999 19.9316 13.1943 19.6309 13.1943H7.41016C7.03947 13.1953 6.73828 13.4914 6.73828 13.8545C6.73846 14.218 7.04074 14.5137 7.41211 14.5137H19.6309C20.003 14.5137 20.3047 14.8094 20.3047 15.1738C20.3046 15.5381 20.003 15.833 19.6309 15.833H7.41211C6.2976 15.833 5.39081 14.9456 5.39062 13.8545C5.39062 13.0424 5.89326 12.3429 6.60938 12.0381L4.17676 1.31934H0.673828C0.301791 1.31934 0.000239418 1.02435 0 0.660156C0 0.295763 0.301643 5.99085e-07 0.673828 0H4.7168ZM7.95312 11.875H19.123L21.4326 3.95801H6.15625L7.95312 11.875Z" fill="white"/>
</g>
</svg>
